<?xml version="1.0" standalone="no"?>
<!DOCTYPE svg PUBLIC "-//W3C//DTD SVG 20010904//EN"
 "http://www.w3.org/TR/2001/REC-SVG-20010904/DTD/svg10.dtd">
<svg version="1.0" xmlns="http://www.w3.org/2000/svg"
 width="188.000000pt" height="292.000000pt" viewBox="0 0 188.000000 292.000000"
 preserveAspectRatio="xMidYMid meet">
<g transform="translate(0.000000,292.000000) scale(0.100000,-0.100000)"
fill="white" stroke="none">
<path d="M1087 2910 c-42 -13 -55 -27 -89 -94 -38 -77 -52 -93 -108 -121 -25
-13 -84 -59 -131 -102 -47 -43 -119 -105 -159 -138 -74 -61 -121 -114 -154
-175 -17 -30 -17 -33 -3 -21 15 11 17 11 17 -2 0 -24 -71 -107 -143 -167 -36
-30 -66 -59 -66 -64 -1 -6 -13 -23 -28 -38 -15 -15 -21 -28 -15 -28 7 0 12 -7
12 -15 0 -18 8 -18 40 0 47 27 44 15 -8 -38 -29 -29 -52 -56 -52 -60 0 -4 18
-6 39 -3 22 3 41 0 43 -5 6 -18 63 20 128 86 73 74 126 114 209 156 69 35 89
36 97 5 3 -13 29 -47 59 -76 48 -48 52 -54 41 -75 -21 -41 -189 -205 -250
-245 -70 -46 -70 -46 -162 40 -51 47 -73 60 -128 75 -72 20 -139 17 -199 -9
-111 -46 -90 -254 38 -375 78 -74 134 -77 257 -15 l47 24 58 -31 c31 -17 63
-35 70 -41 15 -12 17 -57 3 -92 -8 -22 -16 -26 -52 -26 -95 0 -127 -24 -221
-164 -67 -99 -132 -236 -158 -336 -32 -116 -32 -288 0 -374 46 -127 101 -161
220 -132 95 23 115 21 190 -24 77 -46 118 -52 125 -17 2 12 9 48 15 81 12 67
2 102 -49 166 -56 70 -63 101 -68 275 -2 88 1 178 6 200 8 34 10 21 11 -76 1
-132 10 -153 82 -190 22 -11 63 -37 91 -59 28 -21 71 -46 96 -56 41 -15 47
-15 78 0 65 30 67 89 9 212 -43 93 -55 136 -55 209 0 54 7 75 70 205 86 178
100 239 75 325 -18 63 -42 90 -199 230 -32 29 -56 59 -56 70 0 29 38 86 61 92
10 3 19 9 19 14 0 16 26 10 54 -12 16 -12 26 -31 27 -47 0 -27 0 -27 11 -4 8
16 8 29 0 47 -11 24 -10 24 16 13 15 -7 33 -19 41 -27 12 -14 13 -12 8 15 -6
31 -5 31 18 20 14 -6 26 -18 29 -26 2 -8 4 -5 5 8 1 23 34 32 46 12 4 -6 16
-8 28 -5 14 4 17 3 9 -2 -9 -7 -3 -16 20 -33 25 -18 29 -19 17 -4 -10 10 -19
27 -20 38 -3 11 -22 25 -49 35 -48 18 -190 144 -190 168 0 7 11 15 25 19 14 3
32 18 41 33 9 14 38 44 65 66 65 53 181 224 209 309 10 31 9 50 -6 113 -18 75
-17 77 3 112 17 29 34 41 89 63 38 15 74 29 79 31 6 2 2 13 -8 25 -14 15 -36
22 -85 27 -37 4 -89 13 -116 21 -55 16 -78 16 -119 4z"/>
<path d="M1535 1799 c-22 -11 -61 -41 -87 -66 l-47 -46 24 -23 c16 -15 25 -33
24 -51 -1 -22 -3 -24 -6 -6 -5 28 -49 72 -79 79 -46 12 -49 5 -51 -132 -2
-146 10 -198 62 -279 35 -55 91 -112 101 -103 3 3 -9 31 -26 62 -30 53 -32 60
-25 125 l7 68 69 6 c37 3 88 15 113 25 62 28 147 94 171 134 27 46 27 138 0
169 -52 58 -173 76 -250 38z"/>
<path d="M1127 1402 c-10 -10 -17 -24 -17 -31 0 -6 -11 -34 -25 -61 -39 -78
-27 -200 26 -256 31 -33 47 -30 104 17 81 67 83 78 20 148 -29 34 -46 63 -50
88 -9 61 -25 113 -34 113 -4 0 -15 -8 -24 -18z"/>
<path d="M1561 1114 c18 -19 71 -53 116 -75 93 -46 124 -77 69 -71 -21 2 -40
-3 -55 -15 -23 -19 -24 -19 -62 0 -51 25 -126 26 -161 3 -15 -10 -37 -33 -48
-51 -59 -96 25 -167 113 -94 39 32 53 31 67 -5 12 -33 -5 -53 -62 -71 -116
-38 -169 -89 -154 -150 9 -35 43 -40 150 -25 50 6 122 13 160 14 84 2 101 18
111 106 4 37 19 83 36 115 16 30 29 64 29 76 0 11 -16 37 -35 57 -20 20 -46
53 -58 72 -17 26 -49 48 -136 92 -114 57 -114 57 -80 22z"/>
<path d="M1067 653 c-4 -3 -7 -18 -7 -31 0 -30 -43 -107 -65 -116 -8 -3 -15
-10 -15 -17 0 -8 36 -10 118 -9 64 1 173 -1 242 -5 89 -4 139 -2 173 7 l47 13
-87 0 c-82 0 -93 3 -163 39 -41 21 -105 58 -141 82 -65 43 -88 51 -102 37z"/>
<path d="M874 473 c-41 -8 -63 -46 -84 -144 -26 -123 -49 -167 -105 -201 -51
-31 -57 -48 -18 -48 17 0 36 -11 52 -30 30 -34 86 -48 114 -28 21 16 36 74 37
137 0 31 11 67 36 117 37 76 51 135 40 178 -6 26 -19 30 -72 19z"/>
</g>
</svg>
