<?xml version="1.0" encoding="UTF-8" standalone="no"?>
<!-- Created with Inkscape (http://www.inkscape.org/) -->

<svg
   xmlns:sketch="http://www.bohemiancoding.com/sketch/ns"
   xmlns:dc="http://purl.org/dc/elements/1.1/"
   xmlns:cc="http://creativecommons.org/ns#"
   xmlns:rdf="http://www.w3.org/1999/02/22-rdf-syntax-ns#"
   xmlns:svg="http://www.w3.org/2000/svg"
   xmlns="http://www.w3.org/2000/svg"
   xmlns:sodipodi="http://sodipodi.sourceforge.net/DTD/sodipodi-0.dtd"
   xmlns:inkscape="http://www.inkscape.org/namespaces/inkscape"
   width="930"
   height="190"
   viewBox="0 0 930.00001 190"
   id="svg2"
   version="1.1"
   inkscape:version="0.91 r13725"
   sodipodi:docname="senwatch_stack.svg">
  <defs
     id="defs4">
    <linearGradient
       id="linearGradient-1"
       y2="107.05248"
       x2="135.18375"
       y1="38.131096"
       x1="72.230278"
       gradientTransform="scale(1.004121,0.99589591)"
       gradientUnits="userSpaceOnUse">
      <stop
         id="stop4546"
         offset="0%"
         stop-color="#F9A03C" />
      <stop
         id="stop4548"
         offset="100%"
         stop-color="#F7974E" />
    </linearGradient>
    <linearGradient
       id="linearGradient-2"
       y2="109.44264"
       x2="78.821465"
       y1="50.755627"
       x1="18.043451"
       gradientTransform="scale(0.99515409,1.0048695)"
       gradientUnits="userSpaceOnUse">
      <stop
         id="stop4551"
         offset="0%"
         stop-color="#F9A03C" />
      <stop
         id="stop4553"
         offset="100%"
         stop-color="#F7974E" />
    </linearGradient>
    <linearGradient
       id="linearGradient-3"
       y2="134.38101"
       x2="99.272537"
       y1="72.125992"
       x1="47.86208"
       gradientTransform="scale(1.0113789,0.98874913)"
       gradientUnits="userSpaceOnUse">
      <stop
         id="stop4556"
         offset="0%"
         stop-color="#F9A03C" />
      <stop
         id="stop4558"
         offset="100%"
         stop-color="#F7974E" />
    </linearGradient>
    <linearGradient
       id="linearGradient-4"
       y2="127.68912"
       x2="109.53323"
       y1="28.855139"
       x1="42.529484"
       gradientTransform="scale(1.0257326,0.97491299)"
       gradientUnits="userSpaceOnUse">
      <stop
         id="stop4561"
         offset="0%"
         stop-color="#F26D58" />
      <stop
         id="stop4563"
         offset="100%"
         stop-color="#F9A03C" />
    </linearGradient>
    <linearGradient
       id="linearGradient-5"
       y2="77.551079"
       x2="155.35175"
       y1="36.490616"
       x1="81.432907"
       gradientTransform="scale(0.95661791,1.0453494)"
       gradientUnits="userSpaceOnUse">
      <stop
         id="stop4566"
         offset="0%"
         stop-color="#B84E51" />
      <stop
         id="stop4568"
         offset="100%"
         stop-color="#F68E48" />
    </linearGradient>
    <linearGradient
       id="linearGradient-6"
       y2="208.59499"
       x2="46.925949"
       y1="141.53889"
       x1="46.198341"
       gradientTransform="scale(1.3781633,0.72560341)"
       gradientUnits="userSpaceOnUse">
      <stop
         id="stop4571"
         offset="0%"
         stop-color="#F9A03C" />
      <stop
         id="stop4573"
         offset="100%"
         stop-color="#F7974E" />
    </linearGradient>
  </defs>
  <sodipodi:namedview
     id="base"
     pagecolor="#ffffff"
     bordercolor="#666666"
     borderopacity="1.0"
     inkscape:pageopacity="0.0"
     inkscape:pageshadow="2"
     inkscape:zoom="0.49497475"
     inkscape:cx="107.2341"
     inkscape:cy="350.37926"
     inkscape:document-units="px"
     inkscape:current-layer="layer1"
     showgrid="false"
     units="px"
     inkscape:window-width="1680"
     inkscape:window-height="939"
     inkscape:window-x="0"
     inkscape:window-y="1"
     inkscape:window-maximized="1" />
  <metadata
     id="metadata7">
    <rdf:RDF>
      <cc:Work
         rdf:about="">
        <dc:format>image/svg+xml</dc:format>
        <dc:type
           rdf:resource="http://purl.org/dc/dcmitype/StillImage" />
        <dc:title></dc:title>
      </cc:Work>
    </rdf:RDF>
  </metadata>
  <g
     inkscape:label="Layer 1"
     inkscape:groupmode="layer"
     id="layer1"
     transform="translate(0,-862.36216)">
    <g
       id="g4212"
       transform="matrix(0.34676856,0,0,0.34676856,4.8519957,868.49306)">
      <polyline
         id="polyline4214"
         points="0,512 512,512 512,0 0,0 0,512  "
         style="fill:#8fc84e" />
      <path
         id="path4216"
         d="M 512,342 C 482,304 439.665,246.214 439.665,246.214 L 90,246 l -20,56 179,210 263,0 0,-170"
         inkscape:connector-curvature="0"
         style="opacity:0.1;fill:#010101" />
      <path
         id="path4218"
         d="m 149.543,244.85 c 0,-1.563 -0.822,-2.998 -2.169,-3.771 l -35.933,-20.683 c -0.608,-0.356 -1.29,-0.543 -1.979,-0.569 l -0.372,0 c -0.687,0.026 -1.367,0.213 -1.984,0.569 L 71.172,241.079 C 69.832,241.851 69,243.286 69,244.85 l 0.079,55.682 c 0,0.775 0.402,1.498 1.083,1.875 0.667,0.4 1.492,0.4 2.156,0 l 21.355,-12.229 c 1.351,-0.802 2.172,-2.217 2.172,-3.767 l 0,-26.011 c 0,-1.551 0.821,-2.989 2.167,-3.758 l 9.094,-5.236 c 0.678,-0.396 1.419,-0.587 2.176,-0.587 0.74,0 1.5,0.19 2.159,0.587 l 9.089,5.236 c 1.346,0.769 2.17,2.207 2.17,3.758 l 0,26.011 c 0,1.55 0.833,2.976 2.175,3.767 l 21.349,12.229 c 0.671,0.4 1.507,0.4 2.171,0 0.661,-0.377 1.078,-1.1 1.078,-1.875 l 0.07,-55.682"
         inkscape:connector-curvature="0"
         style="clip-rule:evenodd;fill:#ffffff;fill-rule:evenodd" />
      <path
         id="path4220"
         d="m 317.828,273.844 c 0,0.388 -0.209,0.745 -0.545,0.94 l -12.342,7.11 c -0.336,0.194 -0.746,0.194 -1.082,0 l -12.344,-7.11 c -0.337,-0.195 -0.542,-0.553 -0.542,-0.94 l 0,-14.253 c 0,-0.388 0.205,-0.746 0.54,-0.938 l 12.343,-7.129 c 0.339,-0.194 0.749,-0.194 1.088,0 l 12.339,7.129 c 0.336,0.192 0.545,0.551 0.545,0.938 l 0,14.253 m 3.335,-105.541 c -0.674,-0.376 -1.493,-0.367 -2.159,0.023 -0.661,0.39 -1.068,1.101 -1.068,1.871 l 0,55.146 c 0,0.541 -0.293,1.044 -0.759,1.315 -0.469,0.273 -1.049,0.273 -1.522,0 l -8.997,-5.184 c -1.345,-0.777 -2.997,-0.774 -4.337,0 l -35.948,20.746 c -1.344,0.776 -2.172,2.206 -2.172,3.758 l 0,41.5 c 0,1.551 0.828,2.982 2.171,3.761 L 302.314,312 c 1.346,0.777 3.001,0.777 4.343,0 l 35.953,-20.761 c 1.343,-0.778 2.17,-2.21 2.17,-3.761 l 0,-103.45 c 0,-1.571 -0.85,-3.022 -2.226,-3.789 l -21.391,-11.936 z"
         inkscape:connector-curvature="0"
         style="clip-rule:evenodd;fill:#ffffff;fill-rule:evenodd" />
      <path
         id="path4222"
         d="m 439.641,259.221 c 1.341,-0.778 2.161,-2.207 2.161,-3.755 l 0,-10.057 c 0,-1.548 -0.82,-2.978 -2.161,-3.754 l -35.715,-20.738 c -1.342,-0.782 -3.004,-0.782 -4.35,-0.006 l -35.936,20.746 c -1.344,0.776 -2.169,2.207 -2.169,3.76 l 0,41.486 c 0,1.561 0.838,3 2.191,3.772 l 35.712,20.348 c 1.315,0.754 2.933,0.759 4.254,0.024 l 21.601,-12.005 c 0.688,-0.382 1.114,-1.101 1.117,-1.882 0.005,-0.783 -0.41,-1.506 -1.089,-1.898 l -36.161,-20.755 c -0.678,-0.386 -1.093,-1.106 -1.093,-1.883 l 0,-13.003 c 0,-0.772 0.413,-1.492 1.087,-1.879 l 11.255,-6.49 c 0.669,-0.386 1.496,-0.386 2.166,0 l 11.261,6.49 c 0.672,0.387 1.087,1.106 1.087,1.879 l 0,10.229 c 0,0.778 0.415,1.494 1.088,1.885 0.673,0.385 1.501,0.382 2.173,-0.007 l 21.521,-12.507"
         inkscape:connector-curvature="0"
         style="clip-rule:evenodd;fill:#ffffff;fill-rule:evenodd" />
      <path
         id="path4224"
         d="m 204.78,220.692 c 1.342,-0.773 2.998,-0.773 4.34,0 l 35.943,20.742 c 1.345,0.776 2.172,2.208 2.172,3.761 l 0,41.516 c 0,1.55 -0.827,2.981 -2.169,3.761 l -35.944,20.758 c -1.344,0.776 -2.999,0.776 -4.342,0 l -35.935,-20.758 c -1.342,-0.779 -2.169,-2.211 -2.169,-3.761 l 0,-41.518 c 0,-1.551 0.827,-2.982 2.171,-3.759 l 35.933,-20.742"
         inkscape:connector-curvature="0"
         style="clip-rule:evenodd;fill:#ffffff;fill-rule:evenodd" />
    </g>
    <g
       id="g4293"
       transform="matrix(3.1425461,0,0,3.1425461,191.37394,858.68146)">
      <g
         id="g4680"
         transform="matrix(0.94162239,0,0,0.94162239,0,3.5026567)">
        <path
           style="fill:#777777"
           inkscape:connector-curvature="0"
           d="M 51.209,51.209 C 57.036,45.332 60,38.279 60,30 60,21.721 57.036,14.668 51.209,8.79 45.332,2.964 38.279,0 30,0 21.721,0 14.668,2.964 8.79,8.79 2.964,14.668 0,21.721 0,30 0,38.279 2.964,45.332 8.79,51.209 14.668,57.087 21.721,60 30,60 c 8.279,0 15.332,-2.913 21.209,-8.791 z"
           id="path4295" />
        <path
           style="fill:#ffffff"
           inkscape:connector-curvature="0"
           d="M 26.592,22.697 C 25.8,21.43 24.749,20.386 23.439,19.565 22.128,18.744 20.48,18.334 18.493,18.334 c -1.527,0 -2.93,0.288 -4.211,0.864 -1.282,0.576 -2.391,1.382 -3.326,2.419 -0.936,1.037 -1.663,2.261 -2.181,3.671 -0.518,1.411 -0.778,2.966 -0.778,4.665 0.057,1.699 0.309,3.269 0.756,4.708 0.446,1.44 1.116,2.678 2.009,3.715 0.892,1.037 1.994,1.843 3.304,2.419 1.31,0.576 2.858,0.864 4.643,0.864 2.534,0 4.636,-0.633 6.306,-1.901 1.67,-1.267 2.75,-2.817 3.24,-5.323 l -3.628,0 c -0.317,1.469 -0.972,2.227 -1.965,2.947 -0.993,0.72 -2.268,1.08 -3.823,1.08 -1.209,0 -2.261,-0.201 -3.153,-0.605 -0.893,-0.403 -1.627,-0.943 -2.203,-1.62 -0.576,-0.676 -0.993,-1.454 -1.253,-2.333 -0.259,-0.878 -0.375,-2.031 -0.346,-3.01 l 16.716,0 c 0.057,-1.353 -0.065,-2.555 -0.367,-4.052 -0.302,-1.496 -0.849,-2.878 -1.641,-4.145 z M 11.884,27.88 c 0.057,-0.864 0.244,-1.677 0.561,-2.441 0.316,-0.763 0.748,-1.432 1.296,-2.008 0.547,-0.576 1.202,-1.029 1.965,-1.361 0.763,-0.331 1.62,-0.497 2.57,-0.497 0.921,0 1.764,0.166 2.527,0.497 0.763,0.331 1.425,0.778 1.987,1.339 0.562,0.561 1.008,1.231 1.339,2.008 0.331,0.778 0.525,1.598 0.583,2.462 0.001,10e-4 -12.828,10e-4 -12.828,10e-4 z m 31.102,1.21 8.02,-10.723 -4.596,0 -5.812,8.155 -5.587,-8.155 -4.911,0 8.11,11.038 -8.74,12.255 4.641,0 6.488,-9.642 6.488,9.642 4.911,0 -9.012,-12.57 z"
           id="path4297" />
      </g>
    </g>
    <g
       id="g4362"
       transform="matrix(2.9590918,0,0,2.9590918,375.64312,868.49306)">
      <circle
         id="circle4364"
         r="30"
         cy="30"
         cx="30"
         style="fill:#55ad45" />
      <path
         id="path4366"
         d="M 29.053,39.902 C 28.824,27.051 29.104,13.489 29.235,8.264 29.037,8.586 28.78,8.915 28.44,9.218 c -1.305,1.16 -8.406,8.41 -8.803,19.418 -0.311,8.633 4.082,14.087 6.711,16.621 0.438,-0.342 2.067,-1.758 2.83,-4.076 -0.073,-0.393 -0.125,-0.809 -0.125,-1.279 z m 1.037,3.479 c -0.675,1.227 -1.696,1.78 -2.779,2.757 0.279,0.239 0.517,0.434 0.678,0.563 0.748,2.125 0.967,6.799 0.967,6.799 l 1.942,-0.389 c 0,0 0.553,-5.198 1.554,-6.216 L 33.35,46.059 C 32.653,45.432 31.123,44.811 30.09,43.381 Z M 40.349,28.507 C 39.98,20.822 36.725,15.15 31.805,9.866 30.043,7.973 29.863,6.5 29.863,6.5 c 0,0 -0.045,0.486 -0.301,1.112 0.71,4.515 2.551,17.931 1.919,32.288 -0.008,4.377 2.525,5.441 2.525,5.441 l 0.058,0.02 c 2.478,-2.517 6.713,-7.924 6.285,-16.854 z"
         inkscape:connector-curvature="0"
         style="fill:#ffffff" />
    </g>
    <g
       sketch:type="MSPage"
       id="Page-1"
       style="fill:none;fill-rule:evenodd;stroke:none;stroke-width:1"
       transform="matrix(1.0913636,0,0,1.0913636,559.10681,868.31967)">
      <g
         transform="translate(-64,-374)"
         sketch:type="MSArtboardGroup"
         id="Artboard-1">
        <g
           transform="translate(64,374)"
           sketch:type="MSLayerGroup"
           id="D3">
          <path
             sketch:type="MSShapeGroup"
             id="Shape-Copy-2"
             d="m 0,163 162.68226,0 0,-163 L 0,0 0,163"
             inkscape:connector-curvature="0"
             style="fill:#807d7d" />
          <path
             sketch:type="MSShapeGroup"
             id="Shape"
             d="m 134.7975,104.43919 c 0.0484,-0.47247 0.0832,-0.94947 0.11025,-1.42872 0.0326,-0.56742 -33.98737,-32.998432 -33.98737,-32.998432 l -0.81338,0 c 0,0 34.48237,36.544232 34.6905,34.427152 l 0,0 0,0 z"
             inkscape:connector-curvature="0"
             style="fill:url(#linearGradient-1)" />
          <path
             sketch:type="MSShapeGroup"
             id="path4580"
             d="m 62.21475,93.189158 c -0.045,0.09947 -0.09,0.198935 -0.136125,0.298403 -0.04838,0.103989 -0.09788,0.207978 -0.147375,0.310837 -1.0845,2.271934 15.181875,18.248942 16.49025,16.308192 0.05963,-0.0859 0.11925,-0.17633 0.178875,-0.26223 0.06637,-0.10173 0.131625,-0.19894 0.196875,-0.30067 1.04625,-1.596 -16.117875,-17.392162 -16.5825,-16.354532 l 0,0 0,0 z"
             inkscape:connector-curvature="0"
             style="fill:url(#linearGradient-2)" />
          <path
             sketch:type="MSShapeGroup"
             id="path4582"
             d="m 85.20075,115.65644 c -0.04613,0.10173 -0.3735,0.65784 -0.67275,0.95173 -0.05063,0.10172 15.87938,15.97474 15.87938,15.97474 l 1.43437,0 c 10e-4,0 -14.9535,-16.25506 -16.641,-16.92647 l 0,0 0,0 z"
             inkscape:connector-curvature="0"
             style="fill:url(#linearGradient-3)" />
          <path
             sketch:type="MSShapeGroup"
             id="path4584"
             d="m 134.93025,102.72224 c -0.74475,16.59303 -14.40788,29.86067 -31.10063,29.86067 l -2.25675,0 -16.670245,-16.50034 c 1.371375,-1.94301 2.646,-3.95611 3.781125,-6.0551 l 15.14587,0 c 4.79025,0 8.68838,-3.91428 8.68838,-8.72943 0,-4.812882 -3.89813,-8.729426 -8.68838,-8.729426 l -8.96287,0 c 0.682875,-3.627182 1.056375,-7.367396 1.056375,-11.193514 0,-3.884894 -0.38025,-7.678233 -1.087875,-11.363062 l 5.56762,0 34.42951,34.084662 c 0.0405,-0.45664 0.0731,-0.91329 0.0979,-1.37446 l 0,0 0,0 z M 36.05625,30 27,30 l 0,22.555446 9.05625,0 c 15.8175,0 28.6875,12.927418 28.6875,28.819654 0,4.323457 -0.959625,8.427633 -2.665125,12.112461 l 16.52175,16.356799 C 84.025125,101.68913 87.1965,91.898337 87.1965,81.3751 87.1965,53.047133 64.254375,30 36.05625,30 l 0,0 0,0 z"
             inkscape:connector-curvature="0"
             style="fill:url(#linearGradient-4)" />
          <path
             sketch:type="MSShapeGroup"
             id="path4586"
             d="m 103.82962,30 -36.672745,0 c 8.95725,5.494464 16.374375,13.285728 21.427875,22.555446 l 15.24487,0 c 4.79025,0 8.68838,3.914282 8.68838,8.729426 0,4.814014 -3.89813,8.728297 -8.68838,8.728297 l -3.42562,0 34.4295,34.084661 c 0.081,-0.92459 0.13162,-1.85484 0.13162,-2.79979 0,-7.603631 -2.71575,-14.578808 -7.22474,-20.007714 4.50899,-5.426644 7.22474,-12.402951 7.22474,-20.005454 C 134.96512,44.035128 120.99938,30 103.82962,30 l 0,0 0,0 z"
             inkscape:connector-curvature="0"
             style="fill:url(#linearGradient-5)" />
          <path
             sketch:type="MSShapeGroup"
             id="path4588"
             d="m 101.57287,132.58291 -34.15387,0 c 6.874875,-4.26581 12.81825,-9.89704 17.483625,-16.50034 l 16.670245,16.50034 0,0 z M 78.600375,109.84436 62.07975,93.487561 C 57.515625,103.34278 47.5695,110.19701 36.05625,110.19701 l -9.05625,0 0,22.55319 9.05625,0 c 17.72325,0 33.366375,-9.10808 42.544125,-22.90584 l 0,0 0,0 z"
             inkscape:connector-curvature="0"
             style="fill:url(#linearGradient-6)" />
        </g>
      </g>
    </g>
    <g
       id="g4676"
       transform="matrix(0.23134372,0,0,0.23134372,742.63884,864.12595)">
      <path
         d="m 22.243,800.76 c -2.6125,-0.206 -4.75,-0.55265 -4.75,-0.77034 0,-0.21768 1.6083,-7.1454 3.574,-15.395 l 3.574,-14.999 4.176,-0.57427 c 2.2968,-0.31586 6.651,-0.9015 9.676,-1.3014 l 5.5,-0.72715 3.7433,-6.9987 c 5.6056,-10.481 10.253,-26.491 14.805,-50.999 4.5914,-24.723 5.9519,-30.651 9.5816,-41.75 l 2.5346,-7.75 17.918,0 c 9.8548,0 17.918,0.19848 17.918,0.44108 0,1.3344 -15.695,71.566 -19.084,85.395 -7.0869,28.921 -10.163,37.111 -16.626,44.264 -9.2886,10.281 -24.026,13.413 -52.54,11.165 z m 437.25,-52.28 c -6.8758,-0.38389 -15.058,-1.4413 -18.184,-2.3498 -10.875,-3.1616 -19.59,-12.478 -21.883,-23.395 -2.7969,-13.313 5.5114,-54.395 14.701,-72.69 9.396,-18.707 32.294,-31.517 59.388,-33.224 22.627,-1.4256 41.527,6.9072 48.673,21.46 2.6925,5.483 2.8014,6.2814 2.6894,19.714 -0.0874,10.481 -0.72625,17.016 -2.5414,26 l -2.4246,12 -41.238,0.26112 -41.238,0.26111 -1.056,2.7389 c -1.3993,3.629 -0.50488,9.8894 1.7793,12.455 3.9727,4.4613 7.1199,4.9176 41.271,5.9833 17.91,0.55887 32.75,1.1918 32.978,1.4065 0.46376,0.43672 -5.0895,27.091 -5.8988,28.313 -0.72467,1.0941 -51.926,1.9084 -67.017,1.0658 z m 49.557,-82.35 c 0.90866,-3.6204 -1.2092,-9.9377 -4.2897,-12.796 -8.4272,-7.8189 -27.818,-6.1022 -35.605,3.1522 -2.5003,2.9715 -6.6613,10.136 -6.6613,11.47 0,0.29691 10.341,0.53984 22.981,0.53984 l 22.981,0 0.59375,-2.3657 z m -341.56,81.714 c -22.11,-2.0934 -37.279,-14.608 -42.326,-34.92 -4.7361,-19.063 -1.9065,-47.199 6.9582,-69.188 9.7036,-24.07 24.217,-41.169 42.867,-50.505 11.35,-5.6818 21.069,-7.9701 36.056,-8.4893 12.095,-0.41905 15.23,-0.19031 22.464,1.6392 22.45,5.6772 36.293,17.814 43.285,37.949 2.5987,7.484 3.0103,10.096 3.0201,19.165 0.0139,12.883 -2.0128,21.539 -11.589,49.5 -3.7676,11 -7.102,20.788 -7.4098,21.75 -0.50356,1.5746 0.30412,1.75 8.057,1.75 7.1363,0 8.6166,0.26775 8.6166,1.5585 0,0.85718 -1.3006,6.8197 -2.8902,13.25 -1.5896,6.4303 -3.1732,12.929 -3.519,14.442 l -0.62882,2.75 -49.731,-0.16004 c -27.352,-0.088 -51.306,-0.30915 -53.231,-0.49141 z m 57.393,-34.099 c 3.0208,-10.022 10.262,-36.782 13.183,-48.717 5.1797,-21.164 4.1257,-29.678 -4.7761,-38.58 -5.8569,-5.8569 -10.848,-7.4537 -23.3,-7.4537 -10.01,0 -11.561,0.25918 -17.234,2.8795 -13.537,6.2525 -21.305,20.266 -27.278,49.205 -4.5076,21.842 -3.7082,30.112 3.5895,37.129 6.6079,6.3543 10.351,7.1348 34.605,7.2165 18.866,0.0635 20.729,-0.0841 21.21,-1.6804 z m 91.722,33.622 c -6.6613,-1.1062 -14.589,-5.3156 -17.705,-9.4013 -7.2714,-9.5333 -8.6354,-19.879 -5.4673,-41.471 2.1704,-14.792 13.574,-73.409 14.606,-75.079 0.31302,-0.50648 7.988,-0.92088 17.055,-0.92088 l 16.486,0 -0.50328,3.25 c -0.2768,1.7875 -0.77545,5.95 -1.1081,9.25 -0.33266,3.3 -2.412,13.875 -4.6209,23.5 -2.2088,9.625 -4.6549,21.1 -5.4358,25.5 -1.4621,8.2383 -1.9065,25.83 -0.79314,31.397 l 0.62941,3.1471 18.04,-0.27206 18.04,-0.27206 3.2097,-14.5 c 1.7654,-7.975 6.4951,-29.462 10.511,-47.75 l 7.3009,-33.25 16.888,0 c 15.615,0 16.848,0.13188 16.368,1.75 -0.28606,0.9625 -6.1878,28.75 -13.115,61.75 -6.9272,33 -12.847,61.012 -13.156,62.25 l -0.56075,2.25 -35.642,-0.1169 c -19.603,-0.0643 -38.065,-0.51936 -41.027,-1.0113 z m 230.89,0.59574 c 0,-0.3188 6.075,-29.112 13.5,-63.986 7.425,-34.873 13.5,-63.682 13.5,-64.019 0,-1.1912 86.301,0.13211 90.134,1.382 8.0744,2.6331 12.046,8.3657 14.431,20.83 0.7893,4.1253 1.4351,7.911 1.4351,8.4126 0,0.53376 -16.146,0.91203 -38.929,0.91203 l -38.929,0 -1.1087,5.25 c -0.60979,2.8875 -5.2601,24.6 -10.334,48.25 l -9.2254,43 -17.237,0.27361 c -9.4802,0.15049 -17.237,0.0128 -17.237,-0.30603 z m 107.56,-6.4293 c 3.4089,-8.3894 4.6266,-18.159 3.4348,-27.559 -1.1207,-8.8392 -1.6106,-10.843 -7.4526,-30.48 -2.3726,-7.975 -4.6303,-16.412 -5.0172,-18.75 l -0.70342,-4.25 18.922,0 18.922,0 2.8054,9.5 c 1.543,5.225 3.08,9.498 3.4157,9.4956 0.33562,-0.002 12.685,-17.552 27.444,-39 l 26.833,-38.996 20.976,0 c 16.493,0 20.824,0.26714 20.265,1.25 -0.39084,0.6875 -4.4422,6.875 -9.0031,13.75 -7.5371,11.361 -15.566,21.947 -42.475,56 -18.685,23.646 -32.859,47.317 -39.818,66.5 l -2.9022,8 -19.043,0.27138 -19.043,0.27138 2.4398,-6.0045 z m -579.1,-93.29 c 0.21996,-0.6875 1.3573,-5.525 2.5274,-10.75 1.1701,-5.225 2.5684,-11.188 3.1072,-13.25 l 0.97975,-3.75 17.961,0 c 10.266,0 17.961,0.39415 17.961,0.92 0,1.0879 -4.8311,23.791 -5.6028,26.33 -0.48151,1.584 -2.2776,1.75 -18.933,1.75 -14.268,0 -18.311,-0.2808 -18.001,-1.25 z m 331.04,-129.76 c -31.756,-2.7943 -56.98,-8.4078 -83.041,-18.48 -90.243,-34.878 -163.59,-116.68 -186.94,-208.51 -16.759,-65.899 -7.9269,-128.6 25.09,-178.11 9.7878,-14.677 24.607,-32.011 26.095,-30.524 0.21934,0.21934 -0.73957,6.4131 -2.1309,13.764 -5.0944,26.916 -5.9775,36.64 -6.0268,66.365 -0.0537,32.381 1.2734,44.665 7.4617,69.065 19.39,76.456 70.956,136.96 158.41,185.87 33.687,18.841 65.398,28.849 106.58,33.639 15.24,1.7726 49.811,1.5237 65.334,-0.47038 53.91,-6.9254 99.919,-27.468 134.48,-60.045 l 8.5539,-8.0619 -5.2368,9.9898 c -22.005,41.977 -59.565,77.487 -106.32,100.51 -24.208,11.922 -49.948,19.693 -77.818,23.491 -13.741,1.8727 -50.507,2.723 -64.5,1.4917 z m 78.69,-172.04 c -52.31,-4.67 -99.34,-28.07 -138.47,-68.9 -40.5,-42.27 -59.36,-89.9 -57.43,-145.05 1.0919,-31.263 8.7819,-54.702 26.606,-81.096 7.2474,-10.732 14.699,-19.766 13.706,-16.618 -0.30973,0.98269 -1.5584,8.1827 -2.7749,16 -2.9236,18.788 -3.1828,56.635 -0.49469,72.213 10.652,61.729 44.187,107.66 104.89,143.65 42.134,24.986 77.618,34.962 119.28,33.535 41.45,-1.4192 77.379,-15.486 109.1,-42.716 4.5798,-3.9316 9.919,-8.9105 11.865,-11.064 1.9458,-2.1538 3.534,-3.5772 3.5292,-3.1631 -0.0188,1.645 -10.373,21.058 -14.716,27.59 -23.011,34.614 -58.185,58.35 -103.23,69.662 -22.483,5.6463 -49.838,7.91 -71.854,5.9462 z m 64.309,-151.64 c -8.6864,-0.7755 -25.973,-4.5289 -34.263,-7.4396 -34.085,-11.967 -59.895,-35.768 -77.751,-71.698 -9.7376,-19.595 -13.024,-34.023 -12.221,-53.651 0.57471,-14.036 2.9038,-23.818 8.5293,-35.823 3.7975,-8.1037 13.082,-23.151 13.826,-22.407 0.20913,0.20913 -0.13022,4.1673 -0.75411,8.796 -1.7652,13.096 -0.5806,36.3 2.4506,48.001 9.3651,36.151 32.232,64.694 69.309,86.515 40.438,23.799 82.806,26.274 125.08,7.3068 l 6.349,-2.8486 -3.2127,4.7207 c -4.9639,7.2938 -16.575,18.444 -24.628,23.652 -19.254,12.451 -43.748,17.461 -72.715,14.875 z"
         id="path3354"
         inkscape:connector-curvature="0"
         style="fill:#0767aa" />
      <path
         d="m 24.154,800.82 c -4.7712,-0.29413 -6.7043,-0.78506 -6.3943,-1.6239 0.24441,-0.66126 1.9268,-7.5724 3.7386,-15.358 l 3.2943,-14.156 9.6689,-1.1844 9.6689,-1.1844 3.1763,-5.7777 c 6.8256,-12.416 11.051,-27.065 16.165,-56.042 3.0271,-17.153 7.8879,-37.418 10.184,-42.457 l 1.1585,-2.5426 17.733,0 17.733,0 -0.83571,3.75 c -0.45963,2.0625 -4.2525,19.214 -8.4286,38.114 -7.6844,34.779 -14.02,60.62 -17.081,69.675 -5.2868,15.636 -12.181,23.199 -24.539,26.918 -5.6426,1.6983 -23.041,2.6207 -35.242,1.8685 z m 142.84,-53.39 c -10.153,-0.87505 -15.768,-2.6197 -22.655,-7.0385 -14.58,-9.3562 -20.845,-23.912 -20.845,-48.43 0,-27.179 6.7131,-49.783 21.143,-71.192 11.848,-17.578 26.896,-28.093 48.521,-33.906 9.5561,-2.5688 33.114,-2.5777 42.336,-0.016 11.794,3.276 18.898,7.3516 27.103,15.548 16.318,16.301 20.759,36.358 13.972,63.095 -1.6055,6.325 -5.8792,20.05 -9.4972,30.5 -3.6179,10.45 -6.5781,19.29 -6.5782,19.644 -8e-5,0.35427 3.5641,0.80598 7.9203,1.0038 4.3563,0.19783 8.1862,0.62536 8.5109,0.95008 0.32472,0.32472 -1.0657,7.4105 -3.0897,15.746 l -3.6801,15.156 -47.081,-0.1425 c -25.894,-0.0784 -51.131,-0.49156 -56.081,-0.91818 z m 57.89,-32.689 c 8.6915,-28.985 16.61,-61.531 16.61,-68.269 0,-15.412 -9.1022,-25.355 -25.673,-28.044 -11.414,-1.8521 -23.811,1.7099 -33.073,9.5027 -8.4347,7.0974 -18.439,37.58 -19.875,60.561 -0.56803,9.0872 -0.46968,9.734 2.2634,14.885 2.206,4.1575 4.0224,6.042 7.9696,8.2688 6.5503,3.6952 12.889,4.5742 34.07,4.7245 15.56,0.11042 17.232,-0.0433 17.707,-1.6281 z m 95.11,32.735 c -8.8926,-0.94396 -13.243,-2.7858 -18.903,-8.0024 -8.8874,-8.1921 -10.914,-21.068 -7.1573,-45.483 1.8765,-12.197 11.952,-63.857 13.603,-69.75 l 1.0509,-3.75 16.101,0 16.101,0 -0.64717,8.25 c -0.35595,4.5375 -2.2427,15.225 -4.1928,23.75 -6.7499,29.508 -7.6394,34.987 -7.7116,47.5 -0.10459,18.136 -1.9593,16.595 19.581,16.272 l 18.176,-0.27227 10.513,-47.5 10.513,-47.5 16.715,-0.27408 c 13.194,-0.21635 16.623,-0.006 16.279,1 -0.54009,1.5784 -26.52,125.07 -26.52,126.06 0,0.93129 -64.376,0.66886 -73.5,-0.29962 z m 128.5,-0.0729 c -13.558,-1.7394 -24.952,-10.577 -28.122,-21.814 -4.7307,-16.767 6.4882,-66.745 18.599,-82.857 11.757,-15.641 33.856,-25.36 58.023,-25.519 23.105,-0.15206 37.638,6.686 44.7,21.032 3.1852,6.4701 3.2989,7.1202 3.2734,18.724 -0.0235,10.697 -1.4531,21.334 -5.0096,37.271 l -0.50209,2.25 -41.364,0 -41.364,0 -0.60297,2.25 c -1.9666,7.3384 0.54909,14.091 6.116,16.417 4.0585,1.6958 29.843,3.242 55.004,3.2984 8.3875,0.0188 15.25,0.39655 15.25,0.8394 0,0.44285 -1.35,6.9817 -3,14.531 -1.65,7.5491 -3,13.937 -3,14.195 0,0.81759 -71.208,0.25306 -78,-0.61838 z m 60.466,-84.509 c -0.044,-6.5182 -2.3132,-10.006 -8.2053,-12.613 -5.8766,-2.5995 -17.073,-2.7872 -22.76,-0.38154 -6.3249,2.6754 -13.038,10.016 -14.959,16.359 l -0.68732,2.2686 23.323,-0.26861 23.323,-0.26864 -0.0344,-5.0965 z m 39.565,80.87 c 2.48,-11.297 25.97,-122.08 25.97,-122.48 0,-0.9207 49.77,-1.5565 69.5,-0.88791 22.562,0.76461 25.852,1.6405 30.05,8.0021 2.2843,3.4608 4.6927,11.498 5.7963,19.344 l 0.5275,3.75 -38.918,0 -38.918,0 -0.69212,2.75 c -0.38066,1.5125 -5.0093,23 -10.286,47.75 l -9.5937,45 -17.132,0.27318 -17.132,0.27318 0.8283,-3.7732 z m 106.73,-2.5232 c 6.0322,-14.89 5.2697,-26.942 -3.5907,-56.75 -2.6975,-9.075 -5.2124,-18.198 -5.5886,-20.272 l -0.68405,-3.7722 18.765,0.27224 18.765,0.27225 3.059,9.8894 3.059,9.8894 2.5342,-3.3894 c 1.3938,-1.8642 13.743,-19.702 27.444,-39.639 l 24.909,-36.25 20.281,0 c 11.291,0 20.281,0.39734 20.281,0.89636 0,2.0178 -18.74,28.689 -30.988,44.104 -20.124,25.327 -36.318,47.077 -42.636,57.265 -6.3603,10.257 -16.216,30.392 -18.837,38.485 l -1.7002,5.25 -18.803,0 -18.803,0 2.5319,-6.25 z m -578.76,-93.17 c 0,-0.77624 1.3912,-7.3012 3.0914,-14.5 l 3.0914,-13.089 17.909,0 c 9.8497,0 17.909,0.21112 17.909,0.46916 0,0.25803 -1.35,6.6457 -3,14.195 -1.65,7.5491 -3,13.863 -3,14.031 0,0.16785 -8.1,0.30518 -18,0.30518 -14.831,0 -18,-0.24849 -18,-1.4114 z"
         id="path3350"
         inkscape:connector-curvature="0"
         style="fill:#1b222e" />
    </g>
  </g>
</svg>
